# xmcd CD database file
#
# Track frame offsets:
#	150
#	13771
#	24786
#	36833
#	50191
#	63103
#	74393
#	87041
#	99923
#	111091
#	124661
#	135436
#	147066
#	158439
#	170296
#	182226
#	193955
#	206938
#	219359
#	229728
#
# Disc length: 3220 seconds
#
# Revision: 0
# Processed by: cddbd v1.5.2PL0 Copyright (c) Steve Scherf et al.
# Submitted via: CDex 1.70beta2
#
DISCID=0f0c9214
DTITLE=Robert Johnson - 20 Légendes du Blues CD 07
DYEAR=2008
DGENRE=Blues
TTITLE0=Sweet Home Chicago
TTITLE1=Love In Vain
TTITLE2=Crossroad
TTITLE3=I Believe I'll Dust My Broom
TTITLE4=Ramblin' On My Mind
TTITLE5=Walking Blues
TTITLE6=Come On In My Kitchen
TTITLE7=Kind Hearted Woman Blues
TTITLE8=Stone In My Pathway
TTITLE9=Terraplane Blues
TTITLE10=Malted Milk
TTITLE11=Phonograph Blues
TTITLE12=Me And The Devil Blues
TTITLE13=When You Got A Good Friend
TTITLE14=Last Fair Deal Gone Down
TTITLE15=Dead Shrimp Blues
TTITLE16=Presching Blues
TTITLE17=Travelling Riverside Blues
TTITLE18=Honeymoon Blues
TTITLE19=I'm A Steady Rollin' Man
EXTD=YEAR: 2008
EXTT0=
EXTT1=
EXTT2=
EXTT3=
EXTT4=
EXTT5=
EXTT6=
EXTT7=
EXTT8=
EXTT9=
EXTT10=
EXTT11=
EXTT12=
EXTT13=
EXTT14=
EXTT15=
EXTT16=
EXTT17=
EXTT18=
EXTT19=
PLAYORDER=
